<svg version="1" xmlns="http://www.w3.org/2000/svg" width="366.667" height="366.667" viewBox="0 0 275.000000 275.000000"><path d="M119 30.1c-9.4 2.4-20.8 8.2-25.4 12.8C82.2 54.5 80 57.2 78.9 61.2c-.7 2.4-1.7 4.9-2.2 5.6-1.5 1.9-2 27.8-.8 34.7 1.1 5.3 3 16.7 4.8 27.7.3 2.1.2 3.8-.3 3.8-1.2 0-4.2-7.6-5-12.8-.4-2.3-1.1-4.2-1.6-4.2-.6 0-.7 1-.3 2.2.4 1.3 1.1 5 1.6 8.3.6 3.3 1.4 6.9 1.9 8 .5 1.1 1.2 3.5 1.5 5.3.7 3.2 3.6 5.8 4.9 4.4.4-.4 1.2.1 1.7 1.1.6.9 2.2 1.7 3.6 1.7 2.2 0 2.4-.3 1.9-2.3-.4-1.2-1.4-5.8-2.2-10.2-2.1-10.4-1.7-35.9.6-39.5 1.9-3.1 5.2-11.6 7.6-19.3 1.6-5.5 1.8-5.7 3.8-4.4 3.5 2.4 13.8 5 20.4 5.3 3.4.2 7.9.8 10 1.4 2 .5 9.3 1 16.2 1.1 8.2.1 11.5.4 9.5.9-1.8.5 3.5.8 13.4.8h16.3l4.1 9.9 4.1 9.8-.2 15.5c-.1 12.1-.6 17-2.2 22.4-1 3.8-1.7 7.3-1.4 7.7.8 1.4 4 1 5.4-.6.7-.8 1.5-1.3 1.9-1.1 2.3 1.5 5.7-5 6.6-12.9.4-3.3 1.1-6.7 1.5-7.5.4-.8 1-3.5 1.3-6l.6-4.5-1.9 5.5c-1.1 3-2 6.4-2 7.5 0 1.1-.9 3.3-2 5l-2 3V131c0-1.9.6-5.6 1.4-8.1.8-2.5 1.7-7.6 2-11.3.4-3.7 1.2-7.9 1.8-9.4.5-1.5 1.1-8.6 1.1-15.7.1-17-1.3-22.3-9.6-35-5.4-8.4-10.6-12.1-25.2-18.6-11.5-5-38.5-6.5-52.5-2.8z"/><path d="M107.7 93.1c-7.5 1.8-10.8 5.9-7.2 8.9 1.2 1 2.7.9 7.5-.4 3.3-.9 8-1.6 10.5-1.5 4.9.3 6.9-.9 6.3-3.7-.7-3.9-8.3-5.4-17.1-3.3zM159.3 92.9c-2.2 1-3.9 4.4-2.9 5.9.3.5 4.2 1.2 8.7 1.5 4.5.3 8.6 1 9.2 1.6 1.6 1.6 5.2 1.4 6.7-.4 1.9-2.3.8-4.9-3.1-6.8-4.3-2-15.4-3.1-18.6-1.8zM107.8 108.7c-6.8 4.2-6.3 14.5.9 18.2 4.9 2.5 10.7.3 13.7-5.3 1.8-3.4 1.8-3.7.2-7.4-3-6.5-9.3-8.9-14.8-5.5zm4.2 3.9c0 .8-.9 1.4-2 1.4-2.2 0-2.6-1-.8-2.8 1.3-1.3 2.8-.7 2.8 1.4zM161.5 110.1c-3 2.7-3.5 3.7-3.5 7.5 0 13 18.3 14 19.7 1 .5-4.2.3-4.8-3-8.1-4.5-4.5-8.3-4.7-13.2-.4zm5.5 2.5c0 1.4-2.1 1.9-3.3.7-.9-.9 1.3-3.4 2.4-2.7.5.3.9 1.2.9 2zM130.2 144.6c.3 1.7 1.4 1.9 10.6 2.2 8.6.2 10.2 0 10.2-1.3 0-1.7-1-1.8-6.2-.6-3.5.8-6.1.5-12.7-1.5-1.9-.6-2.2-.4-1.9 1.2zM58.7 152.8c-.7 1.6-.7 9.9.2 27.3l1.2 25.1-2.3 2.1c-4.8 4.4-7.6 9.4-12.7 22.1-1.1 2.7-4.1 15.7-4.1 17.7 0 .5 38.5.9 99.5.9h99.6l-.6-3.7c-.4-2.1-1-4.7-1.5-5.8-.4-1.1-1.8-4.9-3.1-8.5-3.2-9.3-6.5-15.5-10.4-19.9-3.8-4.2-4.4-8.3-2.6-16.6 1.4-6.3 2.4-39.8 1.2-41.5-.9-1.3-11.2-1.5-82.2-1.5H59.7l-1 2.3zm86.8 38.6c-1.6 2.4-1.5 2.4 1.4 3.1 3 .6 4.1 2.8 2.1 4-1.5.9-1.2 4.6.6 6.6 1.4 1.6 1.4 2-.1 4.3-1.6 2.3-2.4 2.6-7.9 2.6-7.4 0-9.7-2-10.3-9-.6-6 1.2-8.4 6.1-8.3 2.8.1 3.6-.3 3.6-1.6 0-2.2 1.9-4.1 4.2-4.1 1.7 0 1.7.2.3 2.4z"/></svg>